<?xml version='1.0' encoding='utf-8'?>
<svg xmlns="http://www.w3.org/2000/svg" xmlns:xlink="http://www.w3.org/1999/xlink" enable-background="new 0 0 84.8 92.55" version="1.1" viewBox="0 0 84.8 92.55">
<symbol id="y" viewBox="0.347 -8.979 39.615 8.879">
		<path d="m36.15-3.7c2.4 1.467 3.667 1.833 3.8 1.1s-0.833-1.717-2.9-2.95c-4.4-2.633-9.767-3.75-16.1-3.35-7.2 0.433-13.034 2.183-17.5 5.25-2.133 1.5-3.167 2.683-3.1 3.55 1.133-1.233 2.717-2.433 4.75-3.6 4.033-2.333 8.75-3.7 14.15-4.1 4.1-0.333 7.4-0.133 9.9 0.6 1.733 0.5 4.067 1.667 7 3.5z" clip-rule="evenodd" fill="#fff" fill-rule="evenodd"/>
</symbol>
<symbol id="z" viewBox="0 -22.712 41.25 22.712">
		<path d="m41.25-13.9c-0.567-0.833-0.933-1.333-1.1-1.5-1.5-1.733-3.35-3.2-5.55-4.4-3.733-2.067-7.983-3.034-12.75-2.9-5.5 0.133-10.383 1.617-14.65 4.45-4.233 2.767-6.383 5.85-6.45 9.25-0.1 3.167-0.35 5.8-0.75 7.9l0.3-0.05c0.567-0.133 1.383 0.25 2.45 1.15l-0.05-0.9c-0.233-2 0.4-4.434 1.9-7.3 1.133-2.133 2.816-3.933 5.05-5.4 2.533-1.633 5.6-2.75 9.2-3.35 3.167-0.533 6.633-0.216 10.4 0.95 1.967 0.6 3.95 1.367 5.95 2.3 1.066 0.333 2.833 0.633 5.3 0.9l0.75-1.1z" clip-rule="evenodd" fill="#fff" fill-rule="evenodd"/>
</symbol>
<symbol id="aa" viewBox="0 -30 45.55 30">
		<path d="m43.25-22.35c-4.4-3.5-8.117-5.733-11.15-6.7-3.934-1.267-8.7-1.267-14.3 0-5.566 1.233-9.883 3.333-12.95 6.3-2 1.933-3.417 4.183-4.25 6.75-0.633 2.033-0.65 4-0.05 5.9 0.8 1.767 1.267 2.95 1.4 3.55 0.167 0.733-0.034 1.683-0.6 2.85-0.3 0.6-0.667 1.25-1.1 1.95-0.133 0.4-0.217 0.983-0.25 1.75 0.1-0.467 0.367-0.933 0.8-1.4 0.233-0.267 0.567-0.45 1-0.55 0.267-0.033 0.667-0.067 1.2-0.1 0.4-2.1 0.65-4.733 0.75-7.9 0.067-3.4 2.217-6.483 6.45-9.25 4.267-2.833 9.15-4.316 14.65-4.45 4.767-0.133 9.017 0.833 12.75 2.9 2.2 1.2 4.05 2.667 5.55 4.4 0.4 0.467 0.883 1.15 1.45 2.05 0.167-0.1 0.25-0.233 0.25-0.4 0-0.367 0.233-0.95 0.7-1.75l-0.2-2.2c-0.333-1.6-1.033-2.833-2.1-3.7z" clip-rule="evenodd" fill-rule="evenodd"/>
</symbol>
<symbol id="ab" viewBox="-0.024 -5.95 31.475 5.992">
		<path d="m14.75-5.95c-5.067 0-9.267 1.117-12.6 3.35-1.6 1.033-2.317 1.833-2.15 2.4 0.167 0.534 1.15 0.184 2.95-1.05 2.233-1.533 4.033-2.55 5.4-3.05 1.933-0.633 4.533-0.934 7.8-0.9 4.3 0.067 8.1 0.9 11.4 2.5 1.667 0.8 2.967 1.633 3.9 2.5 0.033-0.667-0.833-1.517-2.6-2.55-3.667-2.133-8.367-3.2-14.1-3.2z" clip-rule="evenodd" fill="#fff" fill-rule="evenodd"/>
</symbol>
<symbol id="ac" viewBox="0 -24.479 45.6 24.479">
		<path d="m45.15-14.35c-3.7-3.933-6.917-6.566-9.65-7.9-3.6-1.767-8.2-2.483-13.8-2.15-5.534 0.333-10.017 1.65-13.45 3.95-2.233 1.5-3.95 3.383-5.15 5.65-0.934 1.767-1.267 3.583-1 5.45 0.5 1.767 0.767 2.95 0.8 3.55 0.033 0.733-0.316 1.583-1.05 2.55-0.367 0.533-0.817 1.1-1.35 1.7-0.167 0.333-0.333 0.85-0.5 1.55 0.167-0.433 0.483-0.833 0.95-1.2 0.3-0.2 0.8-0.3 1.5-0.3 0.1-0.2 0.233-0.717 0.4-1.55s0.383-1.483 0.65-1.95c0.433-0.833 0.583-2.433 0.45-4.8-0.1-2.233 0.283-4.05 1.15-5.45 1.533-2.4 3.85-4.333 6.95-5.8 4.1-1.934 9.167-2.75 15.2-2.45 4.167 0.2 8.267 1.683 12.3 4.45 2.167 1.5 4.184 3.267 6.05 5.3l-0.45-0.6z" clip-rule="evenodd" fill="#42210B" fill-rule="evenodd"/>
</symbol>
<symbol id="ad" viewBox="0 -18.522 41.7 18.522">
		<path d="m40.9-8.7c-1.133-1.833-2.667-3.483-4.6-4.95-3.267-2.467-7.216-4-11.85-4.6-5.3-0.7-10.233-0.05-14.8 1.95-4.5 1.966-7.066 4.517-7.7 7.65-0.5 2.6-1.15 5.017-1.95 7.25h0.3c0.567-0.033 1.3 0.433 2.2 1.4l0.05-0.8c0.133-1.934 1.133-4.1 3-6.5 1.4-1.833 3.317-3.267 5.75-4.3 2.667-1.133 5.784-1.717 9.35-1.75 3.133 0 6.417 0.817 9.85 2.45 1.8 0.867 3.6 1.867 5.4 3 0.967 0.467 2.6 1.017 4.9 1.65l0.9-0.9c-0.333-0.733-0.6-1.25-0.8-1.55z" clip-rule="evenodd" fill="#fff" fill-rule="evenodd"/>
</symbol>
<symbol id="ae" viewBox="0 -24.479 46.6 24.479">
		<path d="m45.15-14.35c-3.7-3.933-6.917-6.566-9.65-7.9-3.6-1.767-8.2-2.483-13.8-2.15-5.534 0.333-10.017 1.65-13.45 3.95-2.233 1.5-3.95 3.383-5.15 5.65-0.934 1.767-1.267 3.583-1 5.45 0.5 1.767 0.767 2.95 0.8 3.55 0.033 0.733-0.316 1.583-1.05 2.55-0.367 0.533-0.817 1.1-1.35 1.7-0.167 0.333-0.333 0.85-0.5 1.55 0.167-0.433 0.483-0.833 0.95-1.2 0.267-0.2 0.633-0.3 1.1-0.3 0.267 0 0.65 0.017 1.15 0.05 0.8-2.1 1.45-4.517 1.95-7.25 0.633-3.133 3.2-5.683 7.7-7.65 4.566-2 9.5-2.65 14.8-1.95 4.633 0.6 8.583 2.133 11.85 4.6 1.933 1.467 3.467 3.117 4.6 4.95 0.333 0.533 0.683 1.233 1.05 2.1 0.2-0.1 0.317-0.217 0.35-0.35 0.033-0.333 0.35-0.833 0.95-1.5l0.15-2.05c-0.067-1.567-0.55-2.833-1.45-3.8z" clip-rule="evenodd" fill-rule="evenodd"/>
</symbol>
<symbol id="af" viewBox="0 -30.15 58.6 30.15">
		<path d="m53.8-6.25c0.367 0.633 0.684 1.467 0.95 2.5 0.267 1.067 0.467 1.75 0.6 2.05 0.867-0.133 1.5-0.05 1.9 0.25 0.633 0.433 1.083 0.917 1.35 1.45-0.267-0.867-0.533-1.533-0.8-2-0.7-0.733-1.3-1.417-1.8-2.05-1.033-1.233-1.55-2.317-1.55-3.25 0-0.767 0.25-2.333 0.75-4.7 0.2-2.467-0.367-4.817-1.7-7.05-1.633-2.867-3.917-5.2-6.85-7-4.5-2.733-10.25-4.1-17.25-4.1-7.066 0-12.816 1.283-17.25 3.85-3.367 2-7.233 5.7-11.6 11.1l-0.55 0.85c2.2-2.833 4.617-5.3 7.25-7.4 4.9-3.933 9.967-6.183 15.2-6.75 7.6-0.867 14.066-0.2 19.4 2 3.967 1.667 7.017 4.017 9.15 7.05 1.2 1.733 1.817 4.067 1.85 7 0 3.067 0.317 5.133 0.95 6.2z" clip-rule="evenodd" fill="#42210B" fill-rule="evenodd"/>
</symbol>
<symbol id="ag" viewBox="0.299 -6 34.523 6.013">
		<path d="m18.65-6c-6.3 0.033-11.45 1.133-15.45 3.3-1.967 1.067-2.933 1.933-2.9 2.6 1.033-0.9 2.467-1.75 4.3-2.55 3.633-1.633 7.8-2.483 12.5-2.55 3.6-0.066 6.45 0.233 8.55 0.9 1.5 0.466 3.467 1.466 5.9 3 2 1.267 3.083 1.617 3.25 1.05s-0.617-1.367-2.35-2.4c-3.633-2.233-8.233-3.35-13.8-3.35z" clip-rule="evenodd" fill="#fff" fill-rule="evenodd"/>
</symbol>
<symbol id="ah" viewBox="0 -24.678 50.1 24.678">
		<path d="m50.1 0c-0.2-0.7-0.4-1.233-0.6-1.6-0.567-0.6-1.05-1.167-1.45-1.7-0.833-1-1.216-1.85-1.15-2.55 0.033-0.6 0.317-1.8 0.85-3.6 0.3-1.9-0.05-3.75-1.05-5.55-3.367-5.9-10.167-9.1-20.4-9.6-6.133-0.333-11.167 0.4-15.1 2.2-3.067 1.367-6.617 4.05-10.65 8.05l-0.55 0.6c6.3-6.3 13.033-9.617 20.2-9.95 6.633-0.3 12.2 0.517 16.7 2.45 3.4 1.467 5.934 3.417 7.6 5.85 0.967 1.4 1.383 3.233 1.25 5.5-0.133 2.367 0.033 3.983 0.5 4.85 0.3 0.5 0.533 1.15 0.7 1.95 0.167 0.867 0.3 1.4 0.4 1.6 0.767-0.067 1.316 0.033 1.65 0.3 0.533 0.367 0.9 0.767 1.1 1.2z" clip-rule="evenodd" fill="#42210B" fill-rule="evenodd"/>
</symbol>
<symbol id="ai" viewBox="0 -18.692 45.8 18.692">
		<path d="m43-0.8l0.05 0.8 0.85-0.7c0.667-0.5 1.2-0.733 1.6-0.7h0.3c-0.833-2.133-1.55-4.583-2.15-7.35-0.667-3.167-3.467-5.733-8.4-7.7-5-2.033-10.417-2.683-16.25-1.95-5.067 0.633-9.4 2.2-13 4.7-2.1 1.467-3.8 3.15-5.1 5.05l-0.9 1.55 1 0.9c0.3-0.033 1.033-0.233 2.2-0.6 1.466-0.4 2.55-0.75 3.25-1.05 0.566-0.267 2.533-1.3 5.9-3.1 3.8-1.667 7.417-2.483 10.85-2.45 3.933 0 7.367 0.566 10.3 1.7 2.633 1.034 4.717 2.467 6.25 4.3 2.067 2.433 3.15 4.633 3.25 6.6z" clip-rule="evenodd" fill="#fff" fill-rule="evenodd"/>
</symbol>
<symbol id="aj" viewBox="0.05 -24.678 51.15 24.678">
		<path d="m50.6-1.6c-0.567-0.6-1.05-1.167-1.45-1.7-0.833-1-1.217-1.85-1.15-2.55 0.033-0.6 0.317-1.8 0.85-3.6 0.3-1.9-0.05-3.75-1.05-5.55-3.367-5.9-10.167-9.1-20.4-9.6-6.133-0.333-11.167 0.4-15.1 2.2-3.066 1.367-6.617 4.05-10.65 8.05-0.967 0.967-1.5 2.233-1.6 3.8l0.15 2.1c0.633 0.667 0.983 1.167 1.05 1.5 0 0.133 0.117 0.267 0.35 0.4 0.433-0.933 0.817-1.65 1.15-2.15 1.3-1.9 3-3.583 5.1-5.05 3.6-2.5 7.933-4.067 13-4.7 5.833-0.733 11.25-0.083 16.25 1.95 4.933 1.967 7.733 4.533 8.4 7.7 0.6 2.767 1.317 5.216 2.15 7.35 0.3-0.033 0.733-0.066 1.3-0.1 0.467 0.033 0.85 0.15 1.15 0.35 0.533 0.367 0.9 0.767 1.1 1.2-0.2-0.7-0.4-1.233-0.6-1.6z" clip-rule="evenodd" fill-rule="evenodd"/>
</symbol>
<symbol id="ak" viewBox="0 -22.841 53 22.841">
		<path d="m45.6-9.3c2.467 2.9 3.883 5.65 4.25 8.25l0.15 1.05 0.95-1c0.7-0.667 1.267-1 1.7-1h0.35c-1.133-2.633-2.133-5.733-3-9.3-1-4.067-4.417-7.2-10.25-9.4-5.9-2.267-12.183-2.733-18.85-1.4-5.767 1.133-10.617 3.434-14.55 6.9-2.267 2.034-4.083 4.3-5.45 6.8-0.3 0.567-0.6 1.267-0.9 2.1l1.2 1.1c2.867-1 4.9-1.833 6.1-2.5 0.633-0.367 2.817-1.816 6.55-4.35 4.233-2.4 8.316-3.717 12.25-3.95 4.533-0.233 8.517 0.283 11.95 1.55 3.133 1.167 5.65 2.883 7.55 5.15z" clip-rule="evenodd" fill="#fff" fill-rule="evenodd"/>
</symbol>
<symbol id="al" viewBox="-0.05 -30.15 59.6 30.15">
		<path d="m58.2-1.45c0.633 0.434 1.083 0.917 1.35 1.45-0.267-0.867-0.533-1.533-0.8-2-0.7-0.733-1.3-1.417-1.8-2.05-1.033-1.233-1.55-2.317-1.55-3.25 0-0.767 0.25-2.333 0.75-4.7 0.2-2.467-0.367-4.817-1.7-7.05-1.633-2.867-3.917-5.2-6.85-7-4.5-2.733-10.25-4.1-17.25-4.1-7.067 0-12.817 1.283-17.25 3.85-3.367 2-7.233 5.7-11.6 11.1-1.033 1.3-1.55 2.983-1.55 5.05l0.35 2.7c0.8 0.8 1.25 1.417 1.35 1.85 0.033 0.2 0.167 0.35 0.4 0.45 0.467-1.267 0.867-2.217 1.2-2.85 1.367-2.5 3.183-4.767 5.45-6.8 3.933-3.467 8.783-5.767 14.55-6.9 6.667-1.333 12.95-0.867 18.85 1.4 5.833 2.2 9.25 5.333 10.25 9.4 0.933 3.6 1.95 6.7 3.05 9.3 0.333-0.033 0.817-0.1 1.45-0.2 0.567-0.033 1.017 0.083 1.35 0.35z" clip-rule="evenodd" fill-rule="evenodd"/>
</symbol>
<symbol id="am" viewBox="0.001 -9.053 31.849 9.103">
		<path d="m14-8.55c-5.167 0.8-9.217 2.65-12.15 5.55-1.434 1.333-2.033 2.283-1.8 2.85 0.233 0.533 1.167 0 2.8-1.6 2.033-1.967 3.683-3.3 4.95-4 1.867-1.033 4.45-1.783 7.75-2.25 4.367-0.6 8.35-0.333 11.95 0.8 1.8 0.567 3.25 1.233 4.35 2-0.067-0.7-1.083-1.45-3.05-2.25-4.067-1.667-9-2.033-14.8-1.1z" clip-rule="evenodd" fill="#fff" fill-rule="evenodd"/>
</symbol>
<symbol id="an" viewBox="0 -30 43.85 30">
		<path d="m43.25-22.35c-4.4-3.5-8.117-5.733-11.15-6.7-3.934-1.267-8.7-1.267-14.3 0-5.566 1.233-9.883 3.333-12.95 6.3-2 1.933-3.417 4.183-4.25 6.75-0.633 2.033-0.65 4-0.05 5.9 0.8 1.767 1.267 2.95 1.4 3.55 0.167 0.733-0.034 1.683-0.6 2.85-0.3 0.6-0.667 1.25-1.1 1.95-0.133 0.4-0.217 0.983-0.25 1.75 0.1-0.467 0.367-0.933 0.8-1.4 0.233-0.3 0.717-0.483 1.45-0.55 0.067-0.233 0.117-0.817 0.15-1.75 0-0.867 0.1-1.583 0.3-2.15 0.3-0.933 0.183-2.617-0.35-5.05-0.533-2.333-0.467-4.3 0.2-5.9 1.133-2.767 3.133-5.167 6-7.2 3.833-2.667 8.833-4.35 15-5.05 6.633-0.733 13.4 1.683 20.3 7.25l-0.6-0.55z" clip-rule="evenodd" fill="#42210B" fill-rule="evenodd"/>
</symbol>
	<path d="m56.96 63.135c-0.934 0.49-1.622 1.063-2.065 1.716-0.279 0.396-0.852 1.073-1.715 2.029l-1.225 1.295c0.84-2.029 1.236-3.383 1.189-4.06-0.047-0.653-0.198-1.167-0.455-1.54l0.42-0.07c0.351-0.07 0.688-0.175 1.016-0.314l0.805-0.315 0.176 0.07c0.163 0.023 0.35-0.035 0.56-0.175 0.187-0.117 0.35-0.07 0.49 0.14 0.21 0.373 0.326 0.571 0.35 0.595 0.232 0.185 0.384 0.396 0.454 0.629z" clip-rule="evenodd" fill="#7A601E" fill-rule="evenodd"/>
		<radialGradient id="u" cx="2.9741" cy="44.884" r="31.277" gradientTransform="matrix(.4857 -.5041 -.5671 -.4336 63.223 100.37)" gradientUnits="userSpaceOnUse">
		<stop stop-color="#F4DA42" offset="0"/>
		<stop stop-color="#F4D837" offset=".4784"/>
		<stop stop-color="#F1D736" offset=".6039"/>
		<stop stop-color="#E7D431" offset=".698"/>
		<stop stop-color="#D7CF29" offset=".7843"/>
		<stop stop-color="#BFC71E" offset=".8667"/>
		<stop stop-color="#A1BE10" offset=".9412"/>
		<stop stop-color="#86B503" offset="1"/>
	</radialGradient>
	<path d="m55.665 64.851c-0.584 0.699-0.852 1.295-0.806 1.784 0.023 0.42 0.222 1.261 0.596 2.521 0.21 1.33-0.035 2.625-0.735 3.885-2.356 4.13-7.116 6.37-14.28 6.72-4.293 0.233-7.817-0.279-10.57-1.54-2.147-0.956-4.632-2.835-7.455-5.635-0.677-0.677-1.05-1.563-1.12-2.66l0.105-1.47c0.443-0.467 0.688-0.816 0.735-1.05 0.023-0.163 0.222-0.292 0.595-0.385 0.187-0.047 0.361-0.082 0.525-0.105l1.47 0.385c1.073 0.304 1.855 0.561 2.345 0.771 0.396 0.187 1.773 0.91 4.13 2.17 2.66 1.167 5.191 1.738 7.595 1.715 2.753 0 5.156-0.396 7.21-1.189 1.843-0.724 3.301-1.728 4.375-3.011 1.446-1.703 2.205-3.243 2.275-4.62l0.034-0.56 0.595 0.49c0.468 0.35 0.841 0.513 1.121 0.489 0.21 0 0.548 0.012 1.015 0.035 0.396 0.023 0.699-0.046 0.91-0.21 0.373-0.257 0.63-0.536 0.77-0.84-0.14 0.49-0.28 0.863-0.42 1.12-0.397 0.419-0.736 0.816-1.015 1.19z" clip-rule="evenodd" fill="url(#u)" fill-rule="evenodd"/>
		<use transform="matrix(.7 0 0 -.7 21.25 62.55)" x="0.05" y="-24.678" width="51.15" height="24.678" enable-background="new" opacity=".1406" xlink:href="#aj"/>
		<use transform="matrix(.7 0 0 -.7 22.55 62.55)" y="-18.692" width="45.8" height="18.692" enable-background="new" opacity=".1914" xlink:href="#ai"/>
		<use transform="matrix(.7 0 0 -.7 22.05 62.55)" y="-24.678" width="50.1" height="24.678" enable-background="new" opacity=".2813" xlink:href="#ah"/>
	<path d="m22.73 67.021c0.187-0.047 0.361-0.082 0.525-0.105l0.42 0.105c-0.023 0.046-0.105 0.128-0.245 0.245-0.163 0.14-0.268 0.257-0.314 0.35-0.14 0.304-0.152 0.548-0.036 0.735-0.327-0.023-0.7-0.023-1.12 0-0.163 0-0.362 0.047-0.595 0.14l0.035-0.035c0.443-0.467 0.688-0.816 0.735-1.05 0.023-0.164 0.221-0.293 0.595-0.385z" clip-rule="evenodd" fill="#82633B" fill-rule="evenodd"/>
		<use transform="matrix(.7 0 0 -.7 26.15 71.45)" x="0.299" y="-6" width="34.523" height="6.013" enable-background="new" opacity=".4609" xlink:href="#ag"/>
	<path d="m14.645 70.346c-0.257-0.397-0.642-0.794-1.155-1.19l-0.735-0.49c0.047-0.257 0.175-0.467 0.385-0.63 0.023-0.023 0.14-0.222 0.35-0.595 0.14-0.21 0.292-0.257 0.455-0.141 0.28 0.187 0.502 0.223 0.665 0.105l0.7 0.315c0.49 0.232 0.934 0.361 1.331 0.385l-0.175 0.385c-0.117 0.35-0.187 0.735-0.21 1.155-0.046 0.653 0.315 1.982 1.085 3.989-1.401-1.562-2.299-2.658-2.696-3.288z" clip-rule="evenodd" fill="#7A601E" fill-rule="evenodd"/>
		<radialGradient id="v" cx="-40.297" cy="-4.4673" r="29.876" gradientTransform="matrix(-.4645 -.5237 .5395 -.4475 12.652 61.699)" gradientUnits="userSpaceOnUse">
		<stop stop-color="#F4DA42" offset="0"/>
		<stop stop-color="#F4D837" offset=".4784"/>
		<stop stop-color="#F1D736" offset=".6039"/>
		<stop stop-color="#E7D431" offset=".698"/>
		<stop stop-color="#D7CF29" offset=".7843"/>
		<stop stop-color="#BFC71E" offset=".8667"/>
		<stop stop-color="#A1BE10" offset=".9412"/>
		<stop stop-color="#86B503" offset="1"/>
	</radialGradient>
	<path d="m43.484 72.48l0.49 0.104c0.327 0.094 0.502 0.222 0.525 0.386 0.023 0.232 0.244 0.583 0.665 1.05l0.104 1.435c-0.047 1.097-0.385 1.983-1.015 2.66-2.59 2.753-4.842 4.597-6.755 5.53-2.521 1.236-5.74 1.738-9.66 1.505-3.874-0.233-7.012-1.155-9.415-2.766-1.563-1.05-2.765-2.368-3.605-3.955-0.653-1.236-0.887-2.508-0.7-3.814 0.35-1.237 0.537-2.065 0.56-2.485 0.023-0.513-0.221-1.107-0.735-1.784-0.56-0.654-0.875-1.051-0.945-1.19l-0.35-1.085 0.14 0.28c0.14 0.209 0.315 0.396 0.525 0.56s0.49 0.233 0.84 0.21c0.21 0 0.525-0.012 0.945-0.035 0.396 0.023 0.91-0.303 1.54-0.979l0.035 0.56c0.093 1.354 0.793 2.87 2.1 4.55 0.98 1.283 2.322 2.287 4.025 3.011 1.867 0.793 4.048 1.201 6.545 1.225 2.193 0 4.492-0.572 6.895-1.715 1.26-0.607 2.52-1.307 3.78-2.101 0.702-0.352 1.857-0.737 3.466-1.157z" clip-rule="evenodd" fill="url(#v)" fill-rule="evenodd"/>
		<use transform="matrix(.7 0 0 -.7 12.65 68.05)" y="-24.479" width="46.6" height="24.479" enable-background="new" opacity=".1406" xlink:href="#ae"/>
		<use transform="matrix(.7 0 0 -.7 14.9 68.1)" y="-18.522" width="41.7" height="18.522" enable-background="new" opacity=".1914" xlink:href="#ad"/>
		<use transform="matrix(.7 0 0 -.7 12.65 68.05)" y="-24.479" width="45.6" height="24.479" enable-background="new" opacity=".2813" xlink:href="#ac"/>
	<path d="m45.165 74.055c-0.187-0.093-0.361-0.14-0.525-0.14h-1.015c0.094-0.187 0.081-0.432-0.035-0.735-0.047-0.093-0.14-0.209-0.28-0.35-0.14-0.116-0.222-0.198-0.245-0.245l0.42-0.104 0.49 0.104c0.327 0.094 0.502 0.222 0.525 0.386 0.023 0.232 0.244 0.583 0.665 1.05v0.034z" clip-rule="evenodd" fill="#82633B" fill-rule="evenodd"/>
		<use transform="matrix(.7 0 0 -.7 18.65 76.9)" x="-0.024" y="-5.95" width="31.475" height="5.992" enable-background="new" opacity=".4609" xlink:href="#ab"/>
	<path d="m44.01 71.815c-1.12-1.867-1.831-3.174-2.135-3.92-0.187-0.443-0.514-0.922-0.98-1.436l-0.666-0.63 0.14-0.21c0.117-0.14 0.245-0.257 0.385-0.35 0.023-0.023 0.175-0.211 0.455-0.561 0.164-0.21 0.315-0.245 0.456-0.104 0.256 0.256 0.479 0.326 0.665 0.21l0.664 0.489c0.444 0.304 0.863 0.49 1.261 0.561-0.28 0.373-0.502 0.898-0.665 1.575-0.14 0.702 0 2.16 0.42 4.376z" clip-rule="evenodd" fill="#7A601E" fill-rule="evenodd"/>
		<radialGradient id="w" cx="58.9" cy="33.8" r="31.154" gradientTransform="matrix(.7 0 0 .7 12.65 61.7)" gradientUnits="userSpaceOnUse">
		<stop stop-color="#F4DA42" offset="0"/>
		<stop stop-color="#F4D837" offset=".4784"/>
		<stop stop-color="#F1D736" offset=".6039"/>
		<stop stop-color="#E7D431" offset=".698"/>
		<stop stop-color="#D7CF29" offset=".7843"/>
		<stop stop-color="#BFC71E" offset=".8667"/>
		<stop stop-color="#A1BE10" offset=".9412"/>
		<stop stop-color="#86B503" offset="1"/>
	</radialGradient>
	<path d="m70.68 74.825l0.489 0.175c0.304 0.163 0.456 0.327 0.456 0.49 0 0.257 0.163 0.665 0.49 1.225l-0.141 1.54c-0.233 1.12-0.724 1.983-1.47 2.59-3.08 2.45-5.682 4.014-7.806 4.69-2.753 0.887-6.09 0.887-10.01 0-3.896-0.863-6.918-2.333-9.064-4.41-1.4-1.354-2.392-2.928-2.975-4.725-0.443-1.424-0.455-2.8-0.035-4.13 0.56-1.237 0.887-2.065 0.98-2.485 0.117-0.513-0.023-1.179-0.42-1.995-0.467-0.77-0.723-1.225-0.77-1.365l-0.175-1.225 0.105 0.315c0.117 0.232 0.269 0.455 0.456 0.664 0.163 0.211 0.432 0.339 0.805 0.386 0.21 0.023 0.524 0.058 0.945 0.104 0.396 0.094 0.968-0.175 1.715-0.805l-0.035 0.63c-0.164 1.4 0.28 3.104 1.33 5.11 0.794 1.493 1.972 2.753 3.535 3.779 1.772 1.144 3.92 1.925 6.439 2.346 2.217 0.373 4.644 0.151 7.28-0.665 1.376-0.42 2.765-0.957 4.165-1.61 0.771-0.232 2.008-0.442 3.711-0.629z" clip-rule="evenodd" fill="url(#w)" fill-rule="evenodd"/>
		<use transform="matrix(.7 0 0 -.7 40.25 65.2)" y="-30" width="45.55" height="30" enable-background="new" opacity=".1406" xlink:href="#aa"/>
		<use transform="matrix(.7 0 0 -.7 42.35 65.85)" y="-22.712" width="41.25" height="22.712" enable-background="new" opacity=".1914" xlink:href="#z"/>
		<use transform="matrix(.7 0 0 -.7 40.25 65.2)" y="-30" width="43.85" height="30" enable-background="new" opacity=".2813" xlink:href="#an"/>
	<path d="m71.625 76.505l-1.051-0.14c0.141-0.187 0.176-0.443 0.105-0.771-0.047-0.116-0.128-0.256-0.245-0.42-0.116-0.14-0.175-0.245-0.175-0.314l0.42-0.035 0.49 0.175c0.304 0.163 0.456 0.327 0.456 0.49 0 0.257 0.163 0.665 0.49 1.225v0.035c-0.14-0.14-0.303-0.222-0.49-0.245z" clip-rule="evenodd" fill="#82633B" fill-rule="evenodd"/>
		<use transform="matrix(.7 0 0 -.7 44.7 75.5)" x="0.001" y="-9.053" width="31.849" height="9.103" enable-background="new" opacity=".4609" xlink:href="#am"/>
	<path d="m58.534 78.36c1.144-2.544 1.716-4.259 1.716-5.146 0-0.536-0.059-1.038-0.176-1.505l-0.209-0.525 0.489-0.034c0.396-0.07 0.793-0.187 1.189-0.351l0.946-0.385 0.209 0.105c0.188 0.023 0.396-0.035 0.631-0.175 0.233-0.164 0.408-0.094 0.524 0.209 0.233 0.514 0.362 0.782 0.386 0.806 0.256 0.257 0.419 0.537 0.489 0.84-1.12 0.56-1.96 1.248-2.52 2.065-0.351 0.489-1.063 1.318-2.136 2.484l-1.538 1.612z" clip-rule="evenodd" fill="#7A601E" fill-rule="evenodd"/>
		<radialGradient id="x" cx="-.917" cy="61.3" r="38.393" gradientTransform="matrix(.4864 -.5034 -.5034 -.4864 74.372 121.33)" gradientUnits="userSpaceOnUse">
		<stop stop-color="#F4DA42" offset="0"/>
		<stop stop-color="#F4D837" offset=".4784"/>
		<stop stop-color="#F1D736" offset=".6039"/>
		<stop stop-color="#E7D431" offset=".698"/>
		<stop stop-color="#D7CF29" offset=".7843"/>
		<stop stop-color="#BFC71E" offset=".8667"/>
		<stop stop-color="#A1BE10" offset=".9412"/>
		<stop stop-color="#86B503" offset="1"/>
	</radialGradient>
	<path d="m61.72 72.585c0.257 0 0.642 0.035 1.155 0.105 0.467 0.046 0.828-0.023 1.085-0.21 0.443-0.304 0.759-0.642 0.945-1.016-0.187 0.607-0.374 1.073-0.561 1.4-0.49 0.513-0.91 0.991-1.26 1.435-0.723 0.864-1.084 1.623-1.084 2.276 0 0.536 0.175 1.634 0.524 3.29 0.141 1.727-0.256 3.371-1.189 4.935-1.144 2.007-2.741 3.641-4.795 4.9-3.15 1.913-7.175 2.87-12.075 2.87-4.947 0-8.972-0.898-12.075-2.695-2.357-1.4-5.063-3.99-8.12-7.77-0.723-0.91-1.085-2.089-1.085-3.535l0.245-1.891c0.561-0.56 0.875-0.991 0.945-1.295 0.047-0.21 0.28-0.361 0.7-0.455 0.21-0.046 0.409-0.081 0.595-0.104l1.68 0.595c1.213 0.467 2.088 0.852 2.625 1.155 0.443 0.257 1.972 1.271 4.585 3.045 2.963 1.68 5.822 2.602 8.575 2.765 3.173 0.164 5.962-0.198 8.365-1.085 2.193-0.816 3.955-2.018 5.284-3.604 1.728-2.03 2.719-3.955 2.976-5.775l0.105-0.735 0.665 0.7c0.49 0.466 0.887 0.699 1.19 0.699z" clip-rule="evenodd" fill="url(#x)" fill-rule="evenodd"/>
		<use transform="matrix(.7 0 0 -.7 23.2 71.45)" x="-0.05" y="-30.15" width="59.6" height="30.15" enable-background="new" opacity=".1406" xlink:href="#al"/>
		<use transform="matrix(.7 0 0 -.7 24.85 71.15)" y="-22.841" width="53" height="22.841" enable-background="new" opacity=".1914" xlink:href="#ak"/>
		<use transform="matrix(.7 0 0 -.7 23.9 71.45)" y="-30.15" width="58.6" height="30.15" enable-background="new" opacity=".2813" xlink:href="#af"/>
	<path d="m25.67 74.825l0.525 0.175c-0.023 0.047-0.128 0.152-0.315 0.315-0.187 0.14-0.315 0.279-0.385 0.42-0.187 0.373-0.222 0.688-0.105 0.944-0.374-0.069-0.806-0.104-1.295-0.104-0.256 0-0.479 0.059-0.665 0.175v-0.07c0.561-0.56 0.875-0.991 0.945-1.295 0.047-0.21 0.28-0.361 0.7-0.455 0.21-0.046 0.408-0.081 0.595-0.105z" clip-rule="evenodd" fill="#82633B" fill-rule="evenodd"/>
		<use transform="matrix(.7 0 0 -.7 28.7 80.9)" x="0.347" y="-8.979" width="39.615" height="8.879" enable-background="new" opacity=".4609" xlink:href="#y"/>
</svg>