<?xml version='1.0' encoding='utf-8'?>
<svg xmlns="http://www.w3.org/2000/svg" enable-background="new 0 0 66.2 31.65" version="1.1" viewBox="0 0 66.2 31.65">
<g clip-rule="evenodd" fill-rule="evenodd">
	<path d="m37.508 5.145c1.755 1.545 2.775 2.435 3.063 2.671 2.2 1.964 3.378 4.294 3.535 6.991-0.026 0.183-0.184 0.55-0.472 1.1-1.439 2.461-3.613 3.94-6.52 4.438 1.807-1.205 3.09-2.146 3.85-2.828 2.461-2.094 2.553-4.346 0.274-6.755-1.938-2.095-4.006-3.705-6.206-4.831-0.366-0.236-0.576-0.471-0.628-0.707-0.497-1.205-0.877-2.331-1.14-3.377 1.285 0.863 2.699 1.963 4.244 3.298z" fill="#DEA190"/>
	<path d="m36.723 15.356c1.989 0.55 3.168 0.785 3.534 0.707 0.367 0 0.629-0.183 0.786-0.55 0.287-0.314-0.563-0.694-2.553-1.139-1.336-0.367-3.967-1.349-7.895-2.945-3.509-1.519-6.101-3.352-7.777-5.499 0.576 0.104 1.139-0.026 1.689-0.393 0.314-0.209 0.55-0.393 0.707-0.549l0.393-0.236c0.052-0.104 0.275-0.327 0.668-0.667l0.471-0.393c0.655-0.917 1.479-1.636 2.475-2.16 0-0.262-0.131-0.406-0.393-0.432-1.519-0.079-3.024 0.223-4.517 0.903l-2.16 0.904c-0.209 0.104-0.419 0.261-0.628 0.471 0 0.053-0.052 0.079-0.157 0.079v0.157c0 0.209-0.026 0.34-0.079 0.393-0.262 0.733-0.825 1.139-1.688 1.217-0.341 0.104-0.93 0.209-1.768 0.314-0.288 0-0.642-0.052-1.061-0.157l-0.314-0.157-8.955 3.613c0.786 0.523 2.645 0.419 5.577-0.314 2.958-0.733 4.622-1.191 4.988-1.375l1.021-0.471c3.954 2.278 7.764 4.32 11.429 6.127 1.599 0.916 3.667 1.767 6.207 2.552zm-3.457-13.51c0.263 1.047 0.643 2.173 1.14 3.377 0.052 0.236 0.262 0.471 0.628 0.707 2.2 1.126 4.269 2.736 6.206 4.831 2.278 2.409 2.187 4.661-0.274 6.755-0.76 0.682-2.043 1.623-3.85 2.828l-1.925 0.156c-0.733 0-1.858-0.052-3.377-0.156-5.027-0.55-9.635-2.187-13.825-4.909-2.173 0.549-4.399 0.706-6.677 0.471-2.854-0.341-5.276-1.296-7.266-2.868-1.624-1.098-1.886-2.447-0.786-4.044 2.409-0.655 4.556-1.61 6.441-2.867 0.969-0.603 2.527-1.06 4.673-1.375 2.252-0.314 3.614-0.746 4.085-1.296 0.602-0.523 1.545-1.139 2.828-1.846 1.152-0.603 3.051-1.113 5.695-1.532 2.304-0.313 4.399 0.276 6.284 1.768z" fill="#B4353B"/>
	<path d="m38.49 14.375c1.989 0.445 2.84 0.825 2.553 1.139-0.157 0.367-0.419 0.55-0.786 0.55-0.366 0.078-1.545-0.157-3.534-0.707-2.54-0.786-4.608-1.636-6.206-2.553-3.665-1.807-7.475-3.849-11.429-6.127l-1.021 0.471c-0.367 0.184-2.03 0.642-4.988 1.375-2.933 0.733-4.792 0.837-5.578 0.314l8.955-3.613 0.314 0.157c0.419 0.104 0.772 0.157 1.061 0.157 0.838-0.104 1.427-0.209 1.768-0.314 0.864-0.079 1.427-0.484 1.688-1.217 0.052-0.053 0.079-0.184 0.079-0.393v-0.158c0.105 0 0.157-0.026 0.157-0.079 0.209-0.209 0.419-0.366 0.628-0.471l2.16-0.904c1.493-0.681 2.998-0.982 4.517-0.903 0.262 0.026 0.393 0.17 0.393 0.432-0.995 0.524-1.82 1.244-2.475 2.16l-0.471 0.393c-0.393 0.34-0.616 0.563-0.668 0.667l-0.393 0.236c-0.157 0.157-0.393 0.34-0.707 0.549-0.55 0.367-1.113 0.498-1.689 0.393 1.676 2.147 4.268 3.98 7.777 5.499 3.928 1.598 6.559 2.58 7.895 2.947z" fill="#E0D0BD"/>
	<path d="m4.045 13.039c1.99 1.571 4.412 2.527 7.266 2.868 2.278 0.235 4.504 0.078 6.677-0.471 4.189 2.723 8.797 4.359 13.825 4.909-1.126-0.053-2.631-0.184-4.517-0.393-2.775-0.263-5.289-0.563-7.541-0.903l-6.991-1.218c-2.356-0.498-4.556-1.048-6.598-1.65-2.671-0.68-4.583-2.16-5.735-4.437v-0.236c0.158-1.44 1.1-2.278 2.828-2.514-1.099 1.597-0.837 2.946 0.786 4.045z" fill="#DEA190"/>
	<path d="m31.813 20.345c1.519 0.104 2.644 0.156 3.377 0.156l1.925-0.156c2.906-0.498 5.08-1.977 6.52-4.438 0.288-0.55 0.445-0.917 0.472-1.1 0.288 2.226 0.104 4.557-0.55 6.991-0.628 2.173-2.016 3.535-4.163 4.085-2.252 0.523-4.517 0.746-6.795 0.667-1.754-0.052-4.32-0.078-7.698-0.078-2.409 0.157-4.857 0.013-7.345-0.432-2.488-0.42-5.08-1.113-7.776-2.082l-7.502-2.984c-0.628-0.289-1.086-0.786-1.375-1.493-1.047-2.461-1.205-5.04-0.472-7.737 1.152 2.277 3.064 3.757 5.735 4.437 2.042 0.603 4.242 1.152 6.598 1.65l6.991 1.218c2.252 0.34 4.766 0.641 7.541 0.903 1.886 0.209 3.391 0.34 4.517 0.393z" fill="#C49681"/>
</g>
</svg>